<?xml version="1.0" encoding="utf-8"?>
<!-- Generator: Adobe Illustrator 21.0.2, SVG Export Plug-In . SVG Version: 6.00 Build 0)  -->
<svg version="1.1" id="Слой_1" xmlns="http://www.w3.org/2000/svg" xmlns:xlink="http://www.w3.org/1999/xlink" x="0px" y="0px"
	 viewBox="0 0 800 305" style="enable-background:new 0 0 800 305;" xml:space="preserve">
<style type="text/css">
	.st0{fill:#E9483C;stroke:#E42912;stroke-miterlimit:10;}
	.st1{fill:#325290;stroke:#223971;stroke-miterlimit:10;}
	.st2{fill:#325290;}
	.st3{fill:none;stroke:#223971;stroke-miterlimit:10;}
</style>
<g>
	<path class="st0" d="M59.8,86l12-30.8C70.1,52.5,404-57.9,800,41.3c-9,16.9-19.9,30.8-19.9,30.8c2.2-3.2-333.3-81.5-673.5-1
		c-11,25.8-34.9,75.5-34.9,75.5c-0.6-1.1,76.7-41.7,148.4-7.9c49.8,26.8,42.3,71.7,34.9,85.4c-7.4,13.7-49.8,114.3-255,69.5
		c13-19.9,21.9-29.8,21.9-29.8c5.9,4.7,192.6,28,214.2-41.7c3-72.5-156.9-82.1-195.3-28.8c-7,2-5-5-5-5C51.8,168.4,69.3,126,91.7,76
		L59.8,86z"/>
</g>
<path class="st1" d="M275,108.8c0,0,32.9,0,51.8-24.8c29.9,0,37.9,0,37.9,0v168.9h-38.9l1-130.2c0,0-32.9,15.9-51.8,12.9
	C275,126.7,275,108.8,275,108.8z"/>
<g>
	<g id="XMLID_1_">
		<g>
			<path class="st2" d="M511.1,167.4c-0.5-38.9-16.5-59.5-44.3-60.6c-27.9-1.1-45.5,23.2-44.3,60.6c1.1,35.7,16.9,61.1,44.3,60.6
				C497.9,227.5,511.5,202,511.1,167.4z M466.2,78c59.8,0,88.7,37.8,85.7,88.9c0.5,59.1-34,90.9-85.7,88.9
				c-52.4-2-88.2-33.6-85.7-88.9C380.6,110.8,416.4,78,466.2,78z"/>
		</g>
		<g>
			<path class="st3" d="M551.9,166.9c0.5,59.1-34,90.9-85.7,88.9c-52.4-2-88.2-33.6-85.7-88.9c0-56.1,35.9-88.9,85.7-88.9
				C526,78,554.9,115.8,551.9,166.9z"/>
			<path class="st3" d="M422.4,167.4c-1.1-37.4,16.4-61.7,44.3-60.6c27.9,1.1,43.8,21.7,44.3,60.6c0.5,34.6-13.2,60.1-44.3,60.6
				C439.3,228.5,423.5,203.1,422.4,167.4z"/>
		</g>
	</g>
</g>
<g>
	<g id="XMLID_2_">
		<g>
			<path class="st2" d="M570.9,168.9c0-56.1,35.9-88.9,85.7-88.9c59.8,0,88.7,37.8,85.7,88.9c0.5,59.1-34,90.9-85.7,88.9
				C604.1,255.8,568.4,224.2,570.9,168.9z M657,108.8c-27.9-1.1-45.5,23.2-44.3,60.6c1.1,35.7,16.9,61.1,44.3,60.6
				c31.2-0.5,44.8-26,44.3-60.6C700.9,130.5,684.9,109.9,657,108.8z"/>
		</g>
		<g>
			<path class="st3" d="M612.7,169.4c-1.1-37.4,16.4-61.7,44.3-60.6c27.9,1.1,43.8,21.7,44.3,60.6c0.5,34.6-13.2,60.1-44.3,60.6
				C629.6,230.5,613.8,205.1,612.7,169.4z"/>
			<path class="st3" d="M742.2,168.9c0.5,59.1-34,90.9-85.7,88.9c-52.4-2-88.2-33.6-85.7-88.9c0-56.1,35.9-88.9,85.7-88.9
				C716.3,80,745.2,117.8,742.2,168.9z"/>
		</g>
	</g>
</g>
</svg>
